#!OML:ASF E:\Style4\Style4.ASF
:FULLY-SPECIFIED
:DEGREES
698
root 1.23062 17.1602 -2.62774 6.34945 -20.0944 -1.77781
lowerback 15.1754 -2.45355 -8.64439
upperback 7.1891 -4.51578 -3.03487
thorax -0.404269 -2.43802 2.32419
lowerneck -0.382396 3.3033 -5.65362
upperneck 8.64686 4.46017 1.00628
head 2.66805 2.04216 1.39599
rclavicle 7.15625e-014 -1.74931e-014
rhumerus -31.3273 63.7909 -41.583
rradius 102.403
rwrist -35.1298
rhand 7.27827 7.00267
rfingers 7.12502
rthumb 32.5405 -20.0934
lclavicle 7.15625e-014 -1.74931e-014
lhumerus 98.2669 -73.8476 -19.5303
lradius 91.9463
lwrist 20.8292
lhand 3.66865 24.4643
lfingers 7.12502
lthumb 29.0993 52.2109
rfemur -35.6207 7.81796 16.6225
rtibia 42.5887
rfoot -13.5948 -5.93142
rtoes -18.4877
lfemur -33.082 9.51783 -21.5834
ltibia 49.5971
lfoot -24.9828 13.8695
ltoes -4.53172
699
root 1.2317 17.1829 -2.61999 6.61908 -19.2196 -1.62025
lowerback 14.6424 -2.69522 -8.45819
upperback 7.0287 -4.75324 -3.00908
thorax -0.283994 -2.54957 2.25311
lowerneck -0.551482 3.42728 -5.56624
upperneck 8.87343 4.62564 1.15328
head 2.7679 2.12677 1.44093
rclavicle 1.59028e-014 -3.18055e-015
rhumerus -29.4003 62.8196 -38.9334
rradius 104.245
rwrist -36.4203
rhand 6.98762 7.1145
rfingers 7.12502
rthumb 32.2639 -20.0382
lclavicle 1.59028e-014 -3.18055e-015
lhumerus 96.1268 -73.4184 -17.6666
lradius 93.4351
lwrist 20.2733
lhand 3.41379 24.3293
lfingers 7.12502
lthumb 28.8559 52.1177
rfemur -35.594 7.2715 16.426
rtibia 42.2035
rfoot -13.5005 -6.21995
rtoes -18.2351
lfemur -33.2285 8.70296 -21.7391
ltibia 49.0806
lfoot -24.6334 13.8925
ltoes -4.94137
700
root 1.22715 17.2102 -2.61384 6.75456 -18.6411 -1.58386
lowerback 14.2262 -2.76983 -8.31142
upperback 6.90837 -4.79161 -2.98129
thorax -0.198438 -2.56417 2.18481
lowerneck -0.634799 3.53238 -5.6312
upperneck 8.98314 4.74121 1.60415
head 2.805 2.19481 1.60614
rclavicle -3.57812e-014 2.8625e-014
rhumerus -27.4822 61.5965 -36.4122
rradius 106.032
rwrist -37.8408
rhand 6.59567 7.16029
rfingers 7.12502
rthumb 31.8907 -20.0675
lclavicle -3.57812e-014 2.8625e-014
lhumerus 93.9285 -72.9719 -15.7855
lradius 94.9302
lwrist 19.5974
lhand 2.9567 24.3049
lfingers 7.12502
lthumb 28.4192 52.167
rfemur -35.3678 7.01902 16.3637
rtibia 41.7788
rfoot -13.4378 -6.36336
rtoes -16.9097
lfemur -33.144 8.27568 -21.7586
ltibia 48.5663
lfoot -24.2349 13.9467
ltoes -5.94446
701
root 1.21661 17.2359 -2.61013 6.73752 -18.1109 -1.68105
lowerback 14.0915 -2.77539 -8.13192
upperback 6.80229 -4.76571 -2.92271
thorax -0.253879 -2.54222 2.14087
lowerneck -0.694341 3.60427 -5.73137
upperneck 9.02231 4.80078 2.20054
head 2.81199 2.24069 1.82291
rclavicle -1.04163e-013 3.02153e-014
rhumerus -25.5107 60.1836 -34.0578
rradius 107.686
rwrist -39.2983
rhand 6.12226 7.07884
rfingers 7.12502
rthumb 31.4398 -20.2379
lclavicle -1.04163e-013 3.02153e-014
lhumerus 91.568 -72.5031 -13.7236
lradius 96.4247
lwrist 18.7585
lhand 2.47867 24.3921
lfingers 7.12502
lthumb 27.9623 52.3296
rfemur -34.9084 6.82224 16.5018
rtibia 41.3297
rfoot -13.3864 -6.51625
rtoes -15.309
lfemur -32.852 8.02082 -21.5985
ltibia 48.0771
lfoot -23.9233 13.8435
ltoes -6.61175
702
root 1.20153 17.2616 -2.60601 6.63179 -17.6697 -1.72923
lowerback 14.0139 -2.6972 -8.04611
upperback 6.68857 -4.64898 -2.868
thorax -0.347616 -2.476 2.13721
lowerneck -0.791126 3.63126 -5.70782
upperneck 9.1702 4.81081 2.62273
head 2.871 2.25861 1.9648
rclavicle -4.69132e-014 -2.70347e-014
rhumerus -23.6168 58.6276 -31.8649
rradius 109.217
rwrist -40.7246
rhand 5.45637 7.06371
rfingers 7.12502
rthumb 30.8052 -20.3747
lclavicle -4.69132e-014 -2.70347e-014
lhumerus 89.2364 -72.0421 -11.6517
lradius 97.8538
lwrist 17.5625
lhand 2.00692 24.284
lfingers 7.12502
lthumb 27.5112 52.2941
rfemur -34.3773 6.70912 16.6009
rtibia 40.8477
rfoot -13.2239 -6.73065
rtoes -14.6869
lfemur -32.4316 7.86527 -21.4608
ltibia 47.5481
lfoot -23.7316 13.5605
ltoes -6.6145
703
root 1.18906 17.2882 -2.59999 6.57743 -17.205 -1.72551
lowerback 13.8822 -2.6282 -7.97532
upperback 6.53414 -4.54266 -2.80631
thorax -0.452422 -2.41384 2.14857
lowerneck -0.868556 3.67109 -5.63594
upperneck 9.37353 4.84545 2.8858
head 2.94864 2.28425 2.04751
rclavicle 9.22361e-014 -9.54166e-015
rhumerus -21.4643 56.8086 -29.4828
rradius 110.643
rwrist -42.4118
rhand 5.31872 6.97371
rfingers 7.12502
rthumb 30.6739 -20.4894
lclavicle 9.22361e-014 -9.54166e-015
lhumerus 86.6702 -71.5605 -9.2582
lradius 99.1664
lwrist 16.2122
lhand 1.49939 24.153
lfingers 7.12502
lthumb 27.0257 52.2394
rfemur -33.9078 6.56627 16.6222
rtibia 40.3645
rfoot -13.0876 -6.94959
rtoes -14.6104
lfemur -32.0639 7.65123 -21.3988
ltibia 46.9904
lfoot -23.4578 13.3169
ltoes -6.70246
704
root 1.18002 17.3172 -2.5916 6.47645 -16.6241 -1.57328
lowerback 13.7928 -2.57882 -8.11211
upperback 6.39772 -4.48873 -2.69629
thorax -0.5327 -2.38384 2.33206
lowerneck -1.05 3.68302 -5.70622
upperneck 9.58517 4.84836 3.21762
head 3.0464 2.29267 2.18195
rclavicle -7.79236e-014 2.06736e-014
rhumerus -19.1693 54.7304 -27.0511
rradius 111.871
rwrist -43.97
rhand 5.28259 7.15883
rfingers 7.12502
rthumb 30.6395 -20.3107
lclavicle -7.79236e-014 2.06736e-014
lhumerus 83.86 -71.0061 -6.44929
lradius 100.382
lwrist 14.9154
lhand 0.707668 24.2393
lfingers 7.12502
lthumb 26.268 52.4409
rfemur -33.405 6.24503 16.4948
rtibia 39.8886
rfoot -13.0536 -7.13409
rtoes -14.7523
lfemur -31.6598 7.27208 -21.4912
ltibia 46.4079
lfoot -23.1846 13.048
ltoes -6.09096
705
root 1.17033 17.345 -2.58371 6.39866 -16.0547 -1.51257
lowerback 13.5488 -2.47651 -7.9883
upperback 6.35095 -4.31595 -2.70676
thorax -0.480005 -2.29534 2.2196
lowerneck -1.22971 3.62601 -5.57556
upperneck 9.73887 4.74358 3.6317
head 3.13205 2.25976 2.30525
rclavicle -4.29375e-014 -1.27222e-014
rhumerus -17.7452 52.4246 -25.694
rradius 112.897
rwrist -44.6985
rhand 4.29381 7.80505
rfingers 7.12502
rthumb 29.6962 -19.8368
lclavicle -4.29375e-014 -1.27222e-014
lhumerus 82.0108 -70.2584 -4.74832
lradius 101.629
lwrist 13.7026
lhand -0.405993 24.3406
lfingers 7.12502
lthumb 25.2014 52.6967
rfemur -32.9056 5.97902 16.4609
rtibia 39.426
rfoot -13 -7.35112
rtoes -14.6259
lfemur -31.2829 6.89675 -21.4739
ltibia 45.8508
lfoot -22.9422 12.8407
ltoes -5.88504
706
root 1.15928 17.3682 -2.5799 6.40541 -15.4371 -1.62886
lowerback 13.5059 -2.38881 -7.71376
upperback 6.15161 -4.17241 -2.64371
thorax -0.700008 -2.20556 2.12319
lowerneck -1.3281 3.59721 -5.37905
upperneck 9.95457 4.68005 3.87176
head 3.2269 2.24245 2.35875
rclavicle -4.05521e-014 4.77083e-015
rhumerus -16.5032 50.2692 -24.6188
rradius 113.783
rwrist -44.9795
rhand 2.94786 8.3856
rfingers 7.12502
rthumb 28.4107 -19.478
lclavicle -4.05521e-014 4.77083e-015
lhumerus 80.0223 -69.6193 -3.00377
lradius 102.738
lwrist 12.1038
lhand -1.59892 23.6581
lfingers 7.12502
lthumb 24.058 52.1701
rfemur -32.4659 5.73729 16.623
rtibia 38.9734
rfoot -12.8951 -7.63524
rtoes -14.4811
lfemur -31.0374 6.55533 -21.2775
ltibia 45.3545
lfoot -22.5718 12.7675
ltoes -6.64667
707
root 1.14773 17.3878 -2.5796 6.43402 -14.8072 -1.72441
lowerback 13.3467 -2.29264 -7.6338
upperback 6.00163 -4.02288 -2.45212
thorax -0.778748 -2.12499 2.25745
lowerneck -1.32937 3.55393 -5.18836
upperneck 9.97036 4.61878 3.8268
head 3.24001 2.21809 2.30867
rclavicle -8.5875e-014 4.77083e-015
rhumerus -14.9302 47.986 -23.2644
rradius 114.58
rwrist -45.4056
rhand 1.66458 8.6505
rfingers 7.12502
rthumb 27.1838 -19.4113
lclavicle -8.5875e-014 4.77083e-015
lhumerus 77.4556 -68.8121 -0.546902
lradius 103.855
lwrist 10.5187
lhand -2.66799 23.424
lfingers 7.12502
lthumb 23.0326 52.0677
rfemur -32.0943 5.47319 16.7653
rtibia 38.5438
rfoot -12.8278 -7.89815
rtoes -13.976
lfemur -30.877 6.27788 -21.1157
ltibia 44.9129
lfoot -22.3034 12.56
ltoes -6.6712
708
root 1.13572 17.4071 -2.57745 6.40988 -14.2538 -1.727
lowerback 13.0329 -2.19785 -7.36532
upperback 5.96244 -3.83899 -2.50811
thorax -0.693228 -2.02953 2.01346
lowerneck -1.48861 3.48664 -4.94992
upperneck 10.0458 4.50784 4.04217
head 3.30201 2.18121 2.34324
rclavicle 7.15625e-015 1.11319e-014
rhumerus -13.6088 45.3632 -22.5388
rradius 115.248
rwrist -46.0224
rhand 0.497592 8.79248
rfingers 7.12502
rthumb 26.0669 -19.4389
lclavicle 7.15625e-015 1.11319e-014
lhumerus 75.1431 -67.7503 1.43632
lradius 105.169
lwrist 9.46752
lhand -3.30314 24.108
lfingers 7.12502
lthumb 22.423 52.8264
rfemur -31.7146 5.20884 16.8126
rtibia 38.1362
rfoot -12.7193 -8.15439
rtoes -13.8372
lfemur -30.6642 6.05363 -21.0571
ltibia 44.4998
lfoot -22.1319 12.3075
ltoes -6.57194
